<svg width="103" height="37" viewBox="0 0 103 37" fill="none" xmlns="http://www.w3.org/2000/svg">
<path d="M28.1058 0.876953H24.6804C23.5404 0.876953 22.6167 1.80065 22.6167 2.9407V12.2452L14.2816 0.876953H8.93604V21.1004H14.4251V9.73109L22.7602 21.1004H28.1058V0.876953V0.876953Z" fill="#000033"/>
<path d="M49.8251 10.9887C49.8251 4.89314 45.6643 0.876953 39.3378 0.876953H32.8865C31.7475 0.876953 30.8228 1.80065 30.8228 2.9407V21.1004H39.3378C45.6643 21.1004 49.8251 17.0842 49.8251 10.9887ZM39.1922 16.0586H36.3108V5.91774H39.1922C42.5146 5.91774 44.1186 8.02621 44.1186 10.9876C44.1186 13.9064 42.5146 16.0586 39.1922 16.0586Z" fill="#000033"/>
<path d="M91.9138 0.5C85.659 0.5 81.2236 4.94891 81.2236 10.9872C81.2236 17.0256 85.658 21.4755 91.9138 21.4755C98.1685 21.4755 102.604 17.0256 102.604 10.9872C102.604 4.94891 98.1695 0.5 91.9138 0.5ZM91.9138 16.2173C88.9669 16.2173 86.9291 14.0797 86.9291 10.9883C86.9291 7.89682 88.9658 5.75922 91.9138 5.75922C94.8606 5.75922 96.8973 7.89786 96.8973 10.9883C96.8973 14.0797 94.8617 16.2173 91.9138 16.2173Z" fill="#000033"/>
<path d="M70.5659 9.51433V11.4668C70.5659 12.6058 71.4896 13.5295 72.6296 13.5295H74.1837C73.6064 15.509 72.147 16.5055 69.6047 16.5055C67.0188 16.5055 64.6347 14.6706 64.6347 10.9873C64.6347 7.82298 66.6579 5.62816 69.5174 5.62816C71.2368 5.62816 72.4642 6.22004 73.3754 7.11564L77.247 3.30229C75.5286 1.55476 73.0571 0.5 69.8513 0.5C63.4946 0.5 59.0166 4.83346 59.0166 10.9873C59.0166 17.1275 63.4946 21.461 69.8513 21.461C74.6029 21.461 79.6166 18.0803 79.6166 11.3347C79.6166 10.7574 79.5875 10.1499 79.5001 9.51433H70.5659Z" fill="#000033"/>
<path d="M0.788638 15.9192C0.788638 15.9473 0.787598 18.0079 0.787598 21.1004H6.2767V0.876953H0.787598C0.787598 3.95177 0.788638 6.03008 0.788638 6.05712C0.788638 7.43642 1.31602 8.81572 2.36661 9.86736C2.8555 10.3562 3.41721 10.7276 4.01428 10.9887C3.41721 11.2519 2.8555 11.6222 2.36661 12.11C1.31498 13.1617 0.788638 14.5409 0.788638 15.9192Z" fill="#000033"/>
<path d="M51.3668 15.9192C51.3668 15.9473 51.3668 18.0079 51.3657 21.1004H56.8547V0.876953H51.3657C51.3668 3.95177 51.3668 6.03008 51.3668 6.05712C51.3668 7.43642 51.8941 8.81572 52.9447 9.86736C53.4336 10.3562 53.9953 10.7276 54.5924 10.9887C53.9953 11.2519 53.4336 11.6222 52.9447 12.11C51.8941 13.1617 51.3668 14.5409 51.3668 15.9192Z" fill="#000033"/>
<path d="M7.20957 28.2005C6.38366 27.6419 5.37467 27.2643 4.19926 27.2643C2.71178 27.2643 1.65287 27.9311 1.65287 29.0274C1.65287 29.9501 2.42885 30.4203 3.95273 30.6096L4.84522 30.7178C6.56465 30.9289 8.03757 31.6248 8.03757 33.4171C8.03757 35.4413 6.20267 36.5002 4.00474 36.5002C2.56095 36.5002 0.979861 35.9999 0 35.1802L0.696928 34.165C1.4001 34.7735 2.71386 35.2884 4.00578 35.2884C5.52134 35.2884 6.71132 34.6726 6.71132 33.5253C6.71132 32.5828 5.86252 32.1324 4.28143 31.9369L3.33902 31.8204C1.66223 31.6175 0.327661 30.8405 0.327661 29.1065C0.327661 27.1478 2.0679 26.0525 4.20862 26.0525C5.73978 26.0525 6.90688 26.5019 7.86489 27.1634L7.20957 28.2005Z" fill="#3333CC"/>
<path d="M18.1607 32.3711C18.1607 35.1432 16.2894 36.4996 13.9458 36.4996C11.6033 36.4996 9.73096 35.1432 9.73096 32.3711V26.1975H11.0083V32.2764C11.0083 34.3589 12.2482 35.2732 13.9458 35.2732C15.6434 35.2732 16.8771 34.3589 16.8771 32.2764V26.1975H18.1607V32.3711V32.3711Z" fill="#3333CC"/>
<path d="M21.8212 26.1975H20.5449V36.355H21.8212V26.1975Z" fill="#3333CC"/>
<path d="M23.1338 26.1975V27.4093H26.6008V36.355H27.8781V27.4093H31.3388V26.1975H23.1338Z" fill="#3333CC"/>
<path d="M32.6646 26.1975V36.355H39.8752V35.1567H33.9409V31.8426H39.6141V30.6371H33.9409V27.3948H39.8024V26.1975H32.6646Z" fill="#3333CC"/>
</svg>
